<svg version="1.2" xmlns="http://www.w3.org/2000/svg" viewBox="0 0 500 500" width="500" height="500">
	<title>logo-svg</title>
	<style>
		.s0 { fill: #ffffff } 
	</style>
	<path fill-rule="evenodd" class="s0" d="m100.3 49.9q1.6 0 3.3 0c1.8 0 1.8 0 3.6 0q1.9 0 3.8 0 5.3-0.1 10.5-0.1 5.7 0 11.4 0 12.4 0 24.8 0 7.7 0 15.5 0 21.4 0 42.9 0c1.3 0 1.3 0 2.7 0q1.4 0 2.8 0 2.8 0 5.6 0 1.4 0 2.8 0 22.4 0 44.8-0.1 23 0 46 0 12.9 0 25.9 0 11-0.1 22-0.1 5.6 0 11.2 0 6.1 0 12.2 0 1.7 0 3.5 0c14.1 0.1 25.2 4.9 35.5 14.4 8.1 8.5 14 19.4 14 31.3q0 1.6 0 3.3c0 1.8 0 1.8 0 3.6q0.1 1.9 0.1 3.8 0 5.3 0 10.6 0 5.6 0 11.3 0 13.7 0 27.5 0 6.4 0.1 12.9 0 21.5 0 43 0 5.6 0 11.2 0 1.3 0 2.8 0 22.4 0.1 44.9 0 23 0 46.1 0 12.9 0.1 25.9 0 11 0 22 0 5.6 0 11.2 0 6.1 0 12.3c0 1.7 0 1.7 0 3.5-0.1 12-3.1 22.3-10.5 31.8q-0.7 0.9-1.4 1.9c-7.6 9.7-18.6 15-30.6 17.1q-2.7 0.1-5.4 0.1c-1.6 0-1.6 0-3.2 0q-1.7 0-3.5 0-1.9 0.1-3.8 0.1-5.2 0-10.4 0-5.5 0-11.1 0-13.5 0-27 0-6.4 0-12.7 0.1-21.2 0-42.3 0-5.5 0-11 0c-1.4 0-1.4 0-2.8 0q-22 0-44.1 0.1-22.7 0-45.4 0-12.7 0-25.4 0.1-10.8 0-21.7 0-5.5 0-11 0-6 0-12.1 0-1.7 0-3.4 0c-14.3-0.1-27.3-4.9-37.9-14.6-10.8-11.4-14.1-24.3-14.1-39.5q0-1.9 0-3.9 0-5.2 0-10.4 0-5.7 0-11.4 0-11 0-22.1 0-9 0-18-0.1-25.6-0.1-51.2 0-1.3 0-2.7 0-1.4 0-2.8 0-22.4 0-44.7-0.1-22.9-0.1-45.9 0-12.9 0-25.8 0-10.9 0-21.9 0-5.6 0-11.2 0-6 0-12.1 0-1.8 0-3.5c0.1-12 3.1-22.3 10.5-31.8 1.1-1.5 1.1-1.5 2.2-3.1 8.1-9.4 20.6-16 33.1-16zm119.7 73.1q-1.6 0.8-3.3 1.6c-19.9 10.4-33.6 27.2-40.4 48.6-1.3 4.9-1.9 9.8-2.3 14.8q-0.1 1-0.2 2c-0.7 16.8 5.5 32.2 16.2 45q1.1 1.4 2.2 2.9c13.1 15.5 33.7 24.4 51.8 32.5 28.9 13 28.9 13 35.9 23.3 2.9 8.5 2.2 15-0.9 23.3q-0.5 1.5-1 3c-1.8 1-1.8 1-4 2-1.1 0.6-1.1 0.6-2.2 1.2-13.5 7.4-29.6 7.6-44.2 3.4-15.4-5-30.8-13.1-43.2-23.6-2.1-2.2-2.1-2.2-4.4-2q-0.8 1.5-1.7 3c-5.3 9.6-10.9 19-16.7 28.3q-2.3 3.6-4.6 7.3-0.7 1.2-1.5 2.4-0.7 1.1-1.4 2.2-0.6 1-1.2 2c-1.1 1.9-1.1 1.9-0.9 4.8 6.9 6.3 15.8 10.6 24 15q1 0.5 1.9 1.1c33.9 18 75.5 22.1 112.4 11.4 12-3.7 23-9.4 32.7-17.5q0.9-0.8 1.9-1.6c15-13.5 21.2-34.2 22.4-53.7 0.7-17.6-4.7-32.4-16.3-45.7-17.2-18.3-39.1-28.5-61.7-38.5-30.9-13.8-30.9-13.8-35.5-22.8-1.6-5.4-1.8-11.5-0.1-16.9 3.2-6 8.2-9.1 14.3-11.8 23.6-6.4 47.4 4.6 68 15 9.8-18.7 9.8-18.7 19.4-37.6 0.5-1.1 0.5-1.1 1.1-2.2 1.9-3.4 1.9-3.4 2.5-7.2-20.4-15.4-48.9-22.8-74-24q-1.7-0.1-3.5-0.2c-14.5-0.4-28.6 2.8-41.5 9.2z"/>
</svg>