<?xml version="1.0" encoding="UTF-8"?>
<svg version="1.1" xmlns="http://www.w3.org/2000/svg" width="500" height="500">
<path d="M0 0 C1.08164983 -0.00384115 2.16329967 -0.00768229 3.27772677 -0.01163983 C5.05930888 -0.01034011 5.05930888 -0.01034011 6.87688255 -0.00901413 C8.13914583 -0.01198525 9.4014091 -0.01495637 10.70192277 -0.01801753 C14.2080712 -0.02608526 17.71419914 -0.02787698 21.22035575 -0.028615 C25.00102204 -0.03046598 28.78167772 -0.03801362 32.56233788 -0.04475021 C40.83110232 -0.05833317 49.09986191 -0.0643584 57.36863565 -0.06876087 C62.53272574 -0.07152376 67.69681396 -0.07576124 72.86090279 -0.08026505 C87.16116849 -0.09245842 101.4614327 -0.10275711 115.76170349 -0.10614014 C117.13465857 -0.10646949 117.13465857 -0.10646949 118.53535011 -0.10680549 C119.45283699 -0.10702377 120.37032387 -0.10724204 121.31561339 -0.10746694 C123.17477139 -0.1079104 125.03392939 -0.10835696 126.89308739 -0.10880661 C127.81529286 -0.10902804 128.73749832 -0.10924947 129.68764941 -0.10947761 C144.62480466 -0.11342413 159.56191108 -0.13087339 174.49904747 -0.15416613 C189.83801267 -0.17789218 205.17695337 -0.19034258 220.51593721 -0.19150805 C229.12684562 -0.19242419 237.73769044 -0.1981609 246.34858131 -0.21632767 C253.68242132 -0.23174567 261.01617808 -0.23683915 268.35003121 -0.22858956 C272.09000272 -0.22468886 275.82980668 -0.22558409 279.56975746 -0.23964691 C283.62993515 -0.25477377 287.68973703 -0.24650206 291.74992943 -0.23606491 C292.92426651 -0.24412132 294.09860358 -0.25217772 295.30852664 -0.26047826 C309.35824211 -0.17610229 320.47064752 4.64991205 330.81545067 14.15877151 C338.90474445 22.65168911 344.80585389 33.54999602 344.828578 45.44430828 C344.83303584 46.52759141 344.83749368 47.61087455 344.84208661 48.72698444 C344.84181007 50.51133344 344.84181007 50.51133344 344.84152794 52.33172989 C344.84520463 53.59596002 344.84888131 54.86019014 344.85266942 56.16273028 C344.86268038 59.67448595 344.86640477 63.18622453 344.86905873 66.69799244 C344.87296459 70.48485293 344.88254288 74.27169992 344.89127159 78.05855179 C344.91103035 87.20645004 344.92110248 96.35434938 344.92999938 105.50226364 C344.93438415 109.81262318 344.93975055 114.1229815 344.94498825 118.43334007 C344.96200164 132.76705387 344.97649432 147.10076691 344.98373699 161.43448925 C344.98564682 165.15386265 344.98756716 168.87323603 344.98952293 172.59260941 C344.99000667 173.51701856 344.99049041 174.44142771 344.99098881 175.39384926 C344.99928348 190.35809296 345.02461037 205.32225658 345.05710361 220.28646534 C345.09020889 235.65821504 345.10818898 251.02992409 345.11138123 266.40170962 C345.11354336 275.0289456 345.12224815 283.65606489 345.14784241 292.28326607 C345.16959703 299.63313879 345.17757657 306.98286645 345.16787563 314.33276772 C345.16334435 318.07923743 345.16514802 321.82540816 345.18463707 325.57183647 C345.20563741 329.64418997 345.19524025 333.71588641 345.18210411 337.78827286 C345.19855798 339.54250711 345.19855798 339.54250711 345.21534425 341.33218044 C345.1225223 353.30423975 342.10763967 363.66924777 334.69435692 373.13142776 C334.24318504 373.74502151 333.79201317 374.35861526 333.32716942 374.99080276 C325.71556449 384.70957516 314.69311269 390.05545088 302.69435692 392.13142776 C300.91009212 392.22091574 299.12301953 392.262178 297.33651543 392.26564884 C295.73472962 392.27233561 295.73472962 392.27233561 294.10058451 392.27915746 C292.93338609 392.2789731 291.76618768 392.27878873 290.56361961 392.27859879 C289.31895282 392.28227547 288.07428603 392.28595216 286.79190207 392.28974026 C283.33940191 392.29885146 279.88694922 392.30347336 276.43444157 392.30612957 C272.70963048 392.31003948 268.98483308 392.31961738 265.26003075 392.32834244 C256.26531392 392.34808826 247.27059601 392.35817101 238.27586293 392.36707023 C234.03673368 392.37145652 229.79760567 392.37682247 225.5584774 392.3820591 C211.46062797 392.39907007 197.36277931 392.41356305 183.26492119 392.42080784 C179.60793621 392.42271763 175.95095124 392.42463798 172.29396629 392.42659378 C170.93063043 392.42731939 170.93063043 392.42731939 169.53975242 392.42805966 C154.82453293 392.43635554 140.10939484 392.46168558 125.39421088 392.49417446 C110.27555227 392.5272811 95.15693499 392.54525989 80.03823996 392.54845208 C71.55409985 392.55061392 63.07007844 392.55931465 54.58597374 392.58491325 C47.35872724 392.60666963 40.13162826 392.61464651 32.90435272 392.60494647 C29.22065739 392.6004159 25.53726611 392.60221476 21.8536129 392.62170792 C17.84918492 392.64271433 13.8454249 392.63230903 9.84096336 392.61917496 C8.69161072 392.6301442 7.54225808 392.64111345 6.35807657 392.6524151 C-7.91045295 392.53995568 -20.91659364 387.74184385 -31.45798683 378.08064651 C-42.26703118 366.67744751 -45.61340399 353.77756651 -45.57306862 338.48807144 C-45.57759973 337.22450717 -45.58213084 335.96094289 -45.58679926 334.65908879 C-45.5989862 331.16774714 -45.59877391 327.67650163 -45.59641051 324.18514359 C-45.59600125 320.41334262 -45.607052 316.64157201 -45.61652565 312.86978531 C-45.63311338 305.48571412 -45.6386342 298.10167488 -45.63975041 290.71758661 C-45.64070202 284.7124493 -45.64481795 278.70732248 -45.65115166 272.70218849 C-45.66875863 255.66066816 -45.67799148 238.61917298 -45.67649071 221.57764349 C-45.6764108 220.65961349 -45.67633088 219.74158349 -45.67624855 218.79573441 C-45.67616679 217.87657787 -45.67608503 216.95742134 -45.67600079 216.01041158 C-45.67518823 201.12078207 -45.69431978 186.2312538 -45.72252528 171.34165356 C-45.75128617 156.03757237 -45.76506379 140.73354051 -45.76333773 125.42943162 C-45.7626749 116.84362173 -45.76812029 108.25791797 -45.78969383 99.67213249 C-45.80794793 92.36077619 -45.81221844 85.0495741 -45.79867499 77.73820481 C-45.79216634 74.01196542 -45.79195125 70.28602151 -45.80938148 66.55981064 C-45.82813165 62.50955341 -45.81550293 58.45997372 -45.8001194 54.4097023 C-45.81040653 53.24683223 -45.82069365 52.08396215 -45.83129251 50.88585359 C-45.73111942 38.89675752 -42.67250694 28.63080485 -35.30564308 19.13142776 C-34.22283058 17.61549026 -34.22283058 17.61549026 -33.11814308 16.06892776 C-24.95879969 6.68045251 -12.51317965 0.01668614 0 0 Z M119.69435692 73.13142776 C118.59994286 73.66123245 117.50552879 74.19103714 116.37795067 74.73689651 C96.4679635 85.17017471 82.83035622 101.97761779 75.98732567 123.33845901 C74.65532321 128.19691401 74.05839208 133.12161048 73.69435692 138.13142776 C73.64021629 138.79400589 73.58607567 139.45658401 73.53029442 140.13924026 C72.82628609 156.97143932 79.01195415 172.3307015 89.69435692 185.13142776 C90.41623192 186.10080276 91.13810692 187.07017776 91.88185692 188.06892776 C105.03566213 203.5341045 125.56967926 212.42732369 143.69435692 220.56892776 C172.54486533 233.5788401 172.54486533 233.5788401 179.56935692 243.88142776 C182.48377214 252.30084951 181.75331623 258.87829498 178.69435692 267.13142776 C178.36435692 268.12142776 178.03435692 269.11142776 177.69435692 270.13142776 C175.91310692 271.16267776 175.91310692 271.16267776 173.69435692 272.13142776 C172.62701317 272.73470901 172.62701317 272.73470901 171.53810692 273.35017776 C158.01668631 280.7418877 141.9081168 280.95146094 127.28029442 276.72127151 C111.85813701 271.70786604 96.45814917 263.61650489 84.06935692 253.13142776 C81.95687578 250.91671585 81.95687578 250.91671585 79.69435692 251.13142776 C79.13748192 252.13560745 78.58060692 253.13978714 78.00685692 254.17439651 C72.67733725 263.7430392 67.09278156 273.11453284 61.27541161 282.39509964 C59.74238995 284.84518799 58.2180989 287.30056019 56.69435692 289.75642776 C56.20080711 290.5393721 55.70725731 291.32231644 55.19875145 292.12898636 C54.74355125 292.86455765 54.28835106 293.60012894 53.81935692 294.35799026 C53.40943504 295.01363968 52.99951317 295.66928909 52.57716942 296.34480667 C51.47285977 298.24755158 51.47285977 298.24755158 51.69435692 301.13142776 C58.57439739 307.39321575 67.53956288 311.72478695 75.69435692 316.13142776 C76.33711571 316.47883011 76.9798745 316.82623245 77.64211082 317.18416214 C111.45426065 335.24624366 153.09068541 339.34564838 189.97560692 328.67439651 C201.97405239 324.92611773 213.0402131 319.2151201 222.69435692 311.13142776 C223.32341942 310.6145137 223.95248192 310.09759964 224.60060692 309.56502151 C239.57879447 295.98252871 245.78468137 275.37796179 247.01466942 255.79549026 C247.70623975 238.18842938 242.3363825 223.46872602 230.69435692 210.13142776 C213.53120911 191.8128954 191.57496463 181.6211139 168.98341942 171.58845901 C138.05088539 157.82188182 138.05088539 157.82188182 133.53420067 148.81892776 C131.86552712 143.47917241 131.65646761 137.28436717 133.41701317 131.93611526 C136.62382103 125.93795643 141.62271723 122.78777013 147.69435692 120.13142776 C171.3278145 113.71026193 195.12350083 124.68374892 215.69435692 135.13142776 C225.46485156 116.39283736 225.46485156 116.39283736 235.06935692 97.56892776 C235.63094505 96.46508743 235.63094505 96.46508743 236.2038784 95.3389473 C238.06153194 91.9045985 238.06153194 91.9045985 238.69435692 88.13142776 C218.31738221 72.71580342 189.78066496 65.35863055 164.69435692 64.13142776 C163.53033348 64.06568558 162.36631004 63.99994339 161.16701317 63.93220901 C146.71966756 63.48506598 132.6431054 66.68312483 119.69435692 73.13142776 Z " fill="#000000" transform="translate(100.30564308166504,49.86857223510742)"/>
</svg>
